<svg xmlns="http://www.w3.org/2000/svg" xmlns:xlink="http://www.w3.org/1999/xlink" width="1920" zoomAndPan="magnify" viewBox="0 0 1440 809.999993" height="1080" preserveAspectRatio="xMidYMid meet" version="1.0"><defs><clipPath id="bf7f6ec864"><path d="M 1227 555 L 1440 555 L 1440 810 L 1227 810 Z M 1227 555 " clip-rule="nonzero"/></clipPath><clipPath id="2a45556081"><path d="M 1192.191406 636.4375 L 1425.007812 523.53125 L 1546.097656 773.214844 L 1313.285156 886.125 Z M 1192.191406 636.4375 " clip-rule="nonzero"/></clipPath><clipPath id="0334772a71"><path d="M 1192.191406 636.4375 L 1425.007812 523.53125 L 1546.097656 773.214844 L 1313.285156 886.125 Z M 1192.191406 636.4375 " clip-rule="nonzero"/></clipPath><clipPath id="7030fc40f8"><path d="M 1234 578 L 1440 578 L 1440 810 L 1234 810 Z M 1234 578 " clip-rule="nonzero"/></clipPath><clipPath id="3dfd86f9f7"><path d="M 1192.191406 636.4375 L 1425.007812 523.53125 L 1546.097656 773.214844 L 1313.285156 886.125 Z M 1192.191406 636.4375 " clip-rule="nonzero"/></clipPath><clipPath id="83a9036fdb"><path d="M 1192.191406 636.4375 L 1425.007812 523.53125 L 1546.097656 773.214844 L 1313.285156 886.125 Z M 1192.191406 636.4375 " clip-rule="nonzero"/></clipPath><clipPath id="34f29e82f7"><path d="M 0 62 L 193 62 L 193 234 L 0 234 Z M 0 62 " clip-rule="nonzero"/></clipPath><clipPath id="3c47e1c51d"><path d="M 184.980469 245.003906 L -10.398438 232.964844 L 0.625 54.054688 L 196.003906 66.089844 Z M 184.980469 245.003906 " clip-rule="nonzero"/></clipPath><clipPath id="a404ddda69"><path d="M 184.980469 245.003906 L -10.398438 232.964844 L 0.625 54.054688 L 196.003906 66.089844 Z M 184.980469 245.003906 " clip-rule="nonzero"/></clipPath></defs><rect x="-144" width="1728" fill="#ffffff" y="-80.999999" height="971.999992" fill-opacity="1"/><rect x="-144" width="1728" fill="#141414" y="-80.999999" height="971.999992" fill-opacity="1"/><g clip-path="url(#bf7f6ec864)"><g clip-path="url(#2a45556081)"><g clip-path="url(#0334772a71)"><path fill="#ac274f" d="M 1301.484375 668.023438 C 1307.203125 638.957031 1313.957031 610.09375 1321.726562 581.511719 C 1322.476562 578.757812 1323.28125 575.914062 1325.085938 573.703125 C 1327.355469 570.921875 1330.875 569.535156 1334.230469 568.257812 C 1345.089844 564.136719 1355.945312 560.011719 1366.800781 555.886719 C 1375.539062 581.148438 1383.417969 606.707031 1390.417969 632.503906 C 1410.65625 622.515625 1431.632812 614.019531 1453.117188 607.113281 C 1454.042969 606.820312 1455.050781 606.527344 1455.957031 606.863281 C 1456.78125 607.171875 1457.335938 607.929688 1457.839844 608.648438 C 1467.363281 622.246094 1476.886719 635.84375 1486.410156 649.441406 C 1472.273438 665.433594 1457.449219 680.816406 1441.992188 695.535156 C 1457.457031 726.921875 1472.917969 758.304688 1488.378906 789.691406 C 1488.808594 790.566406 1489.25 791.503906 1489.117188 792.46875 C 1488.949219 793.675781 1487.945312 794.5625 1487.011719 795.335938 C 1480.398438 800.796875 1473.78125 806.261719 1467.167969 811.722656 C 1442.878906 801.988281 1419.75 789.359375 1398.421875 774.195312 C 1394.484375 771.394531 1389.25 768.425781 1385.191406 771.050781 C 1383.734375 771.992188 1382.761719 773.507812 1381.839844 774.976562 C 1367.550781 797.625 1352.746094 819.945312 1337.441406 841.917969 C 1336.746094 842.914062 1335.960938 843.972656 1334.792969 844.292969 C 1333.835938 844.554688 1332.828125 844.261719 1331.882812 843.964844 C 1324.675781 841.738281 1317.46875 839.507812 1310.261719 837.277344 C 1311.320312 813.382812 1312.378906 789.488281 1313.433594 765.59375 C 1313.472656 764.726562 1313.503906 763.820312 1313.128906 763.039062 C 1312.679688 762.101562 1311.734375 761.523438 1310.839844 760.996094 C 1285.089844 745.789062 1259.335938 730.585938 1233.582031 715.378906 C 1231.566406 714.1875 1229.449219 712.894531 1228.355469 710.824219 C 1227.328125 708.882812 1227.375 706.574219 1227.441406 704.378906 C 1227.652344 697.699219 1227.859375 691.019531 1228.070312 684.335938 C 1257.511719 677.871094 1278.683594 670.382812 1301.484375 668.023438 Z M 1301.484375 668.023438 " fill-opacity="1" fill-rule="nonzero"/></g></g></g><g clip-path="url(#7030fc40f8)"><g clip-path="url(#3dfd86f9f7)"><g clip-path="url(#83a9036fdb)"><path fill="#000000" d="M 1466.726562 781.378906 C 1468.886719 785.308594 1464.621094 789.644531 1460.65625 787.546875 C 1454.582031 784.332031 1447.476562 780.820312 1439.949219 777.101562 C 1421.761719 768.113281 1401.316406 758.003906 1383.804688 746.5625 C 1376.976562 756.738281 1370.265625 766.925781 1363.203125 777.640625 C 1354.269531 791.191406 1345.039062 805.207031 1334.34375 821.078125 C 1331.933594 824.652344 1326.363281 823.140625 1326.089844 818.839844 C 1325.003906 801.6875 1323.984375 788.304688 1323.167969 777.550781 C 1321.9375 761.367188 1321.019531 749.328125 1320.710938 735.785156 C 1283.800781 725.890625 1238.703125 704.917969 1236.746094 704.003906 C 1233.117188 702.304688 1233.328125 697.074219 1237.085938 695.675781 C 1239.546875 694.761719 1295.367188 674.132812 1323.074219 672.316406 C 1333.792969 634.648438 1338.539062 614.171875 1343.683594 583.113281 C 1344.105469 580.570312 1346.210938 578.644531 1348.777344 578.445312 C 1351.335938 578.246094 1353.695312 579.8125 1354.515625 582.242188 C 1358.726562 594.757812 1363.675781 607.683594 1368.472656 620.21875 C 1373.222656 632.628906 1378.113281 645.414062 1382.332031 657.894531 C 1383.734375 657.226562 1385.128906 656.5625 1386.515625 655.902344 C 1409.058594 645.160156 1430.351562 635.011719 1455.035156 627.492188 C 1458.988281 626.285156 1462.347656 630.582031 1460.226562 634.128906 C 1450.820312 649.84375 1441.050781 661.460938 1430.710938 673.757812 C 1425.109375 680.414062 1419.335938 687.28125 1413.367188 695.105469 C 1421.929688 710.410156 1431 724.28125 1439.785156 737.714844 C 1448.835938 751.554688 1458.191406 765.863281 1466.726562 781.378906 Z M 1381.363281 734.015625 L 1385.117188 736.578125 C 1402.890625 748.710938 1424.703125 759.492188 1443.949219 769.003906 C 1446.445312 770.238281 1448.890625 771.445312 1451.277344 772.632812 C 1445.175781 762.457031 1438.832031 752.757812 1432.230469 742.660156 C 1422.863281 728.335938 1413.179688 713.527344 1404.039062 696.90625 L 1402.636719 694.351562 L 1404.382812 692.023438 C 1411.128906 683.011719 1417.570312 675.351562 1423.800781 667.945312 C 1431.402344 658.90625 1438.683594 650.246094 1445.675781 640.078125 C 1426.46875 646.867188 1408.863281 655.257812 1390.402344 664.054688 C 1387.496094 665.441406 1384.5625 666.839844 1381.59375 668.246094 L 1376.953125 670.441406 L 1375.367188 665.5625 C 1370.878906 651.773438 1365.371094 637.375 1360.039062 623.449219 C 1356.785156 614.945312 1353.464844 606.265625 1350.339844 597.632812 C 1345.722656 623.09375 1340.585938 643.953125 1330.863281 677.945312 L 1329.929688 681.203125 L 1326.542969 681.222656 C 1308.160156 681.3125 1269.453125 693.917969 1250.765625 700.398438 C 1267.050781 707.539062 1299.789062 721.207031 1326.273438 727.898438 L 1329.632812 728.746094 L 1329.683594 732.207031 C 1329.898438 746.929688 1330.804688 758.839844 1332.175781 776.867188 C 1332.773438 784.710938 1333.472656 793.949219 1334.234375 805.03125 C 1341.890625 793.570312 1348.867188 782.988281 1355.664062 772.671875 C 1363.601562 760.625 1371.097656 749.246094 1378.828125 737.78125 Z M 1381.363281 734.015625 " fill-opacity="1" fill-rule="nonzero"/></g></g></g><g clip-path="url(#34f29e82f7)"><g clip-path="url(#3c47e1c51d)"><g clip-path="url(#a404ddda69)"><path fill="#ac274f" d="M 126.195312 93.410156 C 127.964844 90.546875 129.636719 87.992188 131.164062 85.351562 C 134.320312 79.882812 137.402344 74.371094 140.515625 68.878906 C 141.1875 67.699219 141.855469 66.519531 142.554688 65.359375 C 143.664062 63.523438 145.402344 63.015625 147.378906 63.308594 C 149.378906 63.609375 150.679688 65.023438 151.046875 66.828125 C 152.074219 71.933594 152.902344 77.082031 153.699219 82.226562 C 154.460938 87.148438 155.089844 92.085938 155.777344 97.015625 C 155.820312 97.300781 155.992188 97.585938 155.957031 97.855469 C 155.539062 101.054688 157.65625 101.992188 160.125 103.03125 C 167.707031 106.222656 175.234375 109.550781 182.691406 113.019531 C 185.269531 114.21875 187.59375 115.96875 190.011719 117.5 C 191.890625 118.691406 192.636719 120.527344 192.4375 122.640625 C 192.210938 125.042969 190.574219 126.285156 188.328125 126.691406 C 183.972656 127.472656 179.601562 128.171875 175.238281 128.914062 C 167.21875 130.28125 159.195312 131.628906 151.191406 133.085938 C 150.59375 133.195312 149.804688 134.027344 149.667969 134.648438 C 147.40625 144.8125 145.21875 154.988281 143.054688 165.171875 C 142.328125 168.589844 141.714844 172.035156 141.046875 175.464844 C 140.519531 178.164062 139.265625 179.601562 137.097656 179.980469 C 134.695312 180.398438 133.191406 179.0625 132.3125 177.136719 C 129.222656 170.359375 126.238281 163.535156 123.265625 156.710938 C 121.867188 153.5 120.542969 150.257812 119.273438 146.996094 C 118.820312 145.835938 118.164062 145.746094 117.105469 146.027344 C 113.382812 147.023438 109.664062 148.0625 105.902344 148.878906 C 99.425781 150.289062 92.921875 151.5625 86.421875 152.847656 C 83.78125 153.371094 81.109375 153.75 78.464844 154.257812 C 75.75 154.773438 73.773438 153.480469 72.433594 151.433594 C 71.117188 149.421875 71.664062 147.207031 73.191406 145.46875 C 75.40625 142.945312 77.742188 140.515625 80.140625 138.164062 C 86.636719 131.796875 93.234375 125.53125 99.667969 119.105469 C 100.359375 118.414062 100.710938 116.800781 100.449219 115.824219 C 97.566406 105.082031 94.53125 94.382812 91.539062 83.671875 C 90.632812 80.433594 89.601562 77.226562 88.882812 73.949219 C 88.46875 72.070312 89.089844 70.273438 90.761719 69.046875 C 92.449219 67.808594 94.152344 67.273438 96.023438 68.78125 C 105.15625 76.128906 114.3125 83.449219 123.445312 90.796875 C 124.273438 91.460938 124.992188 92.257812 126.195312 93.410156 Z M 88.804688 180.070312 C 90.472656 179.097656 91.003906 177.4375 89.746094 176.023438 C 88.886719 175.058594 87.476562 174.234375 86.207031 174.046875 C 82.25 173.460938 78.230469 173.285156 74.253906 172.800781 C 68.300781 172.074219 62.359375 171.25 56.421875 170.382812 C 55.78125 170.289062 54.902344 169.785156 54.667969 169.242188 C 53.167969 165.761719 51.765625 162.238281 50.425781 158.691406 C 48.527344 153.667969 46.75 148.597656 44.832031 143.582031 C 44.144531 141.785156 43.003906 140.335938 40.855469 140.085938 C 37.128906 139.652344 34.820312 141.746094 34.488281 145.851562 C 33.925781 152.851562 33.304688 159.847656 32.785156 166.851562 C 32.671875 168.421875 32.085938 169.027344 30.503906 168.839844 C 26.953125 168.421875 23.386719 168.109375 19.832031 167.699219 C 17.988281 167.488281 16.15625 167.167969 14.320312 166.90625 C 9.089844 166.164062 3.859375 165.457031 -1.363281 164.679688 C -3.332031 164.382812 -4.628906 165.355469 -5.339844 166.921875 C -6.082031 168.5625 -6.488281 170.4375 -4.820312 171.867188 C -2.433594 173.90625 -0.0585938 175.980469 2.480469 177.816406 C 9.074219 182.59375 15.65625 187.398438 22.457031 191.863281 C 24.539062 193.226562 24.757812 194.539062 24.375 196.605469 C 23.453125 201.578125 22.648438 206.574219 21.804688 211.566406 C 21.160156 215.359375 20.441406 219.144531 19.925781 222.957031 C 19.585938 225.476562 19.191406 228.078125 19.460938 230.570312 C 19.820312 233.90625 23.171875 234.933594 25.601562 232.621094 C 27.355469 230.945312 28.964844 229.113281 30.59375 227.3125 C 35.753906 221.585938 40.867188 215.816406 46.078125 210.136719 C 46.59375 209.574219 47.691406 209.164062 48.4375 209.269531 C 50.402344 209.550781 52.339844 210.09375 54.257812 210.640625 C 59.953125 212.261719 65.628906 213.953125 71.320312 215.585938 C 74.480469 216.488281 77.0625 215.339844 77.757812 212.769531 C 78.34375 210.59375 77.09375 209.035156 75.859375 207.550781 C 72.605469 203.632812 69.277344 199.78125 66.003906 195.882812 C 65.511719 195.296875 65.164062 194.597656 64.785156 194.007812 C 72.980469 189.253906 80.894531 184.667969 88.804688 180.070312 Z M 15.257812 126.597656 C 16.101562 126.300781 16.859375 125.652344 17.542969 125.035156 C 23.03125 120.089844 28.503906 115.125 33.945312 110.128906 C 34.847656 109.300781 35.539062 109 36.726562 109.742188 C 40.863281 112.324219 45.066406 114.800781 49.28125 117.257812 C 51.691406 118.667969 54.101562 120.113281 56.632812 121.28125 C 58.925781 122.335938 61.320312 121.152344 61.796875 118.730469 C 62.003906 117.671875 61.679688 116.261719 61.089844 115.335938 C 57.597656 109.859375 54.015625 104.429688 50.328125 99.082031 C 49.074219 97.265625 49.085938 96.136719 50.898438 94.679688 C 53.457031 92.621094 55.816406 90.292969 58.109375 87.933594 C 59.535156 86.464844 61.085938 84.875 60.707031 82.523438 C 60.214844 79.457031 57.335938 77.839844 53.976562 78.578125 C 50.558594 79.328125 47.085938 79.890625 43.707031 80.789062 C 41.765625 81.304688 41.046875 80.601562 40.359375 78.945312 C 38.46875 74.382812 36.515625 69.839844 34.347656 65.40625 C 33.792969 64.269531 32.320312 62.808594 31.324219 62.847656 C 30.027344 62.898438 28.339844 64.023438 27.617188 65.183594 C 26.601562 66.808594 26.066406 68.851562 25.777344 70.785156 C 25.214844 74.605469 25.011719 78.472656 24.527344 82.304688 C 24.460938 82.824219 23.664062 83.648438 23.191406 83.65625 C 18.191406 83.738281 13.1875 83.75 8.1875 83.644531 C 4.867188 83.578125 2.625 84.558594 1.929688 86.664062 C 1.199219 88.875 2.265625 90.910156 5.160156 92.820312 C 5.457031 93.019531 5.78125 93.175781 6.097656 93.347656 C 9.441406 95.152344 12.761719 96.992188 16.136719 98.734375 C 17.4375 99.40625 17.660156 100.222656 17.128906 101.523438 C 16.019531 104.238281 14.921875 106.960938 13.960938 109.730469 C 12.4375 114.105469 11.03125 118.519531 9.578125 122.914062 C 9.230469 127.179688 11.695312 127.84375 15.257812 126.597656 Z M 15.257812 126.597656 " fill-opacity="1" fill-rule="nonzero"/></g></g></g></svg>