<svg xmlns="http://www.w3.org/2000/svg" xmlns:xlink="http://www.w3.org/1999/xlink" width="1920" zoomAndPan="magnify" viewBox="0 0 1440 809.999993" height="1080" preserveAspectRatio="xMidYMid meet" version="1.0"><defs><clipPath id="1e3becb01e"><path d="M 0 528 L 258 528 L 258 810 L 0 810 Z M 0 528 " clip-rule="nonzero"/></clipPath><clipPath id="fddf3e9f8c"><path d="M -96.148438 641.609375 L 136.667969 528.699219 L 257.757812 778.386719 L 24.941406 891.296875 Z M -96.148438 641.609375 " clip-rule="nonzero"/></clipPath><clipPath id="5764c9cd99"><path d="M 0 42 L 223 42 L 223 282 L 0 282 Z M 0 42 " clip-rule="nonzero"/></clipPath><clipPath id="78e7afb735"><path d="M -96.148438 113.609375 L 136.667969 0.699219 L 257.757812 250.386719 L 24.941406 363.296875 Z M -96.148438 113.609375 " clip-rule="nonzero"/></clipPath><clipPath id="1840576f29"><path d="M 258.140625 250.472656 L 25.324219 363.382812 L -95.765625 113.699219 L 137.050781 0.789062 Z M 258.140625 250.472656 " clip-rule="nonzero"/></clipPath><clipPath id="733f0c5d1e"><path d="M 258.140625 250.472656 L 25.324219 363.382812 L -95.765625 113.699219 L 137.050781 0.789062 Z M 258.140625 250.472656 " clip-rule="nonzero"/></clipPath><clipPath id="74b9faba77"><path d="M 0 63 L 217 63 L 217 282 L 0 282 Z M 0 63 " clip-rule="nonzero"/></clipPath><clipPath id="ffe1cdd1d3"><path d="M -96.148438 113.609375 L 136.667969 0.699219 L 257.757812 250.386719 L 24.941406 363.296875 Z M -96.148438 113.609375 " clip-rule="nonzero"/></clipPath><clipPath id="962b4f3898"><path d="M 258.140625 250.472656 L 25.324219 363.382812 L -95.765625 113.699219 L 137.050781 0.789062 Z M 258.140625 250.472656 " clip-rule="nonzero"/></clipPath><clipPath id="f04f528206"><path d="M 258.140625 250.472656 L 25.324219 363.382812 L -95.765625 113.699219 L 137.050781 0.789062 Z M 258.140625 250.472656 " clip-rule="nonzero"/></clipPath><clipPath id="c0fe4945e2"><rect x="0" width="258" y="0" height="282"/></clipPath><clipPath id="db01dffbef"><path d="M 1237 54 L 1440 54 L 1440 248 L 1237 248 Z M 1237 54 " clip-rule="nonzero"/></clipPath><clipPath id="ee45933f59"><path d="M 1446.699219 232.636719 L 1251.546875 247.925781 L 1237.550781 69.222656 L 1432.699219 53.933594 Z M 1446.699219 232.636719 " clip-rule="nonzero"/></clipPath><clipPath id="a705d9c090"><path d="M 5 9 L 203 9 L 203 181 L 5 181 Z M 5 9 " clip-rule="nonzero"/></clipPath><clipPath id="038190cece"><path d="M 209.699219 178.636719 L 14.546875 193.925781 L 0.550781 15.222656 L 195.699219 -0.0664062 Z M 209.699219 178.636719 " clip-rule="nonzero"/></clipPath><clipPath id="d8a9958078"><path d="M 14.605469 193.921875 L 209.757812 178.632812 L 195.757812 -0.0703125 L 0.605469 15.21875 Z M 14.605469 193.921875 " clip-rule="nonzero"/></clipPath><clipPath id="6d89ed2d3f"><path d="M 14.605469 193.921875 L 209.757812 178.632812 L 195.757812 -0.0703125 L 0.605469 15.21875 Z M 14.605469 193.921875 " clip-rule="nonzero"/></clipPath><clipPath id="9c51a8f678"><rect x="0" width="203" y="0" height="194"/></clipPath></defs><rect x="-144" width="1728" fill="#ffffff" y="-80.999999" height="971.999992" fill-opacity="1"/><rect x="-144" width="1728" fill="#141414" y="-80.999999" height="971.999992" fill-opacity="1"/><g clip-path="url(#1e3becb01e)"><g clip-path="url(#fddf3e9f8c)"><g transform="matrix(1, 0, 0, 1, 0, 528)"><g clip-path="url(#c0fe4945e2)"><g clip-path="url(#5764c9cd99)"><g clip-path="url(#78e7afb735)"><g clip-path="url(#1840576f29)"><g clip-path="url(#733f0c5d1e)"><path fill="#ac274f" d="M 148.847656 218.890625 C 143.128906 247.957031 136.375 276.816406 128.605469 305.402344 C 127.855469 308.15625 127.050781 311 125.246094 313.210938 C 122.976562 315.992188 119.457031 317.378906 116.101562 318.65625 C 105.246094 322.777344 94.390625 326.902344 83.53125 331.023438 C 74.792969 305.765625 66.914062 280.207031 59.914062 254.410156 C 39.675781 264.398438 18.699219 272.894531 -2.785156 279.796875 C -3.707031 280.09375 -4.71875 280.386719 -5.625 280.050781 C -6.449219 279.742188 -7.003906 278.980469 -7.507812 278.261719 C -17.03125 264.667969 -26.554688 251.070312 -36.074219 237.472656 C -21.941406 221.480469 -7.117188 206.097656 8.339844 191.378906 C -7.121094 159.992188 -22.582031 128.605469 -38.046875 97.222656 C -38.476562 96.347656 -38.917969 95.40625 -38.785156 94.441406 C -38.617188 93.238281 -37.613281 92.351562 -36.675781 91.578125 C -30.0625 86.113281 -23.449219 80.652344 -16.835938 75.191406 C 7.453125 84.925781 30.582031 97.550781 51.910156 112.71875 C 55.847656 115.519531 61.082031 118.488281 65.140625 115.863281 C 66.597656 114.921875 67.570312 113.40625 68.496094 111.9375 C 82.78125 89.289062 97.585938 66.96875 112.894531 44.996094 C 113.585938 44 114.371094 42.941406 115.539062 42.621094 C 116.496094 42.359375 117.503906 42.652344 118.449219 42.945312 C 125.65625 45.175781 132.867188 47.40625 140.074219 49.632812 C 139.015625 73.53125 137.957031 97.425781 136.898438 121.320312 C 136.859375 122.183594 136.828125 123.09375 137.203125 123.875 C 137.652344 124.8125 138.597656 125.390625 139.492188 125.917969 C 165.242188 141.121094 190.996094 156.328125 216.75 171.535156 C 218.765625 172.726562 220.882812 174.015625 221.976562 176.089844 C 223.003906 178.03125 222.960938 180.339844 222.890625 182.53125 C 222.679688 189.214844 222.472656 195.894531 222.261719 202.574219 C 192.820312 209.042969 171.648438 216.53125 148.847656 218.890625 Z M 148.847656 218.890625 " fill-opacity="1" fill-rule="nonzero"/></g></g></g></g><g clip-path="url(#74b9faba77)"><g clip-path="url(#ffe1cdd1d3)"><g clip-path="url(#962b4f3898)"><g clip-path="url(#f04f528206)"><path fill="#000000" d="M -16.394531 105.535156 C -18.554688 101.605469 -14.289062 97.269531 -10.324219 99.367188 C -4.25 102.582031 2.855469 106.09375 10.382812 109.8125 C 28.570312 118.800781 49.019531 128.90625 66.527344 140.351562 C 73.355469 130.175781 80.066406 119.988281 87.132812 109.269531 C 96.0625 95.71875 105.296875 81.707031 115.992188 65.835938 C 118.398438 62.261719 123.96875 63.773438 124.242188 68.074219 C 125.328125 85.226562 126.347656 98.609375 127.164062 109.359375 C 128.398438 125.542969 129.3125 137.582031 129.621094 151.128906 C 166.53125 161.023438 211.628906 181.996094 213.585938 182.910156 C 217.21875 184.605469 217.003906 189.839844 213.246094 191.234375 C 210.785156 192.152344 154.964844 212.78125 127.257812 214.597656 C 116.539062 252.265625 111.796875 272.742188 106.648438 303.796875 C 106.226562 306.339844 104.125 308.269531 101.554688 308.46875 C 98.996094 308.664062 96.636719 307.101562 95.816406 304.667969 C 91.605469 292.152344 86.660156 279.230469 81.859375 266.691406 C 77.109375 254.28125 72.21875 241.496094 68 229.019531 C 66.597656 229.6875 65.207031 230.347656 63.816406 231.011719 C 41.273438 241.753906 19.980469 251.902344 -4.703125 259.421875 C -8.65625 260.625 -12.015625 256.328125 -9.894531 252.785156 C -0.488281 237.070312 9.28125 225.453125 19.625 213.15625 C 25.222656 206.496094 30.996094 199.632812 36.964844 191.804688 C 28.402344 176.503906 19.332031 162.632812 10.546875 149.195312 C 1.496094 135.359375 -7.859375 121.050781 -16.394531 105.535156 Z M 68.96875 152.898438 L 65.21875 150.335938 C 47.441406 138.203125 25.628906 127.421875 6.382812 117.910156 C 3.886719 116.675781 1.441406 115.464844 -0.941406 114.28125 C 5.15625 124.457031 11.5 134.15625 18.101562 144.253906 C 27.46875 158.574219 37.152344 173.386719 46.292969 190.007812 L 47.695312 192.558594 L 45.949219 194.890625 C 39.203125 203.902344 32.761719 211.5625 26.53125 218.96875 C 18.933594 228.007812 11.648438 236.667969 4.65625 246.832031 C 23.863281 240.046875 41.472656 231.65625 59.929688 222.859375 C 62.835938 221.472656 65.773438 220.074219 68.738281 218.667969 L 73.378906 216.472656 L 74.964844 221.351562 C 79.453125 235.140625 84.960938 249.539062 90.292969 263.464844 C 93.546875 271.96875 96.867188 280.644531 99.992188 289.28125 C 104.609375 263.820312 109.746094 242.960938 119.46875 208.964844 L 120.402344 205.710938 L 123.789062 205.691406 C 142.171875 205.601562 180.878906 192.992188 199.566406 186.515625 C 183.28125 179.375 150.546875 165.707031 124.058594 159.015625 L 120.703125 158.167969 L 120.652344 154.703125 C 120.433594 139.984375 119.53125 128.074219 118.160156 110.046875 C 117.5625 102.203125 116.859375 92.964844 116.101562 81.882812 C 108.441406 93.34375 101.464844 103.925781 94.667969 114.242188 C 86.730469 126.289062 79.234375 137.667969 71.507812 149.132812 Z M 68.96875 152.898438 " fill-opacity="1" fill-rule="nonzero"/></g></g></g></g></g></g></g></g><g clip-path="url(#db01dffbef)"><g clip-path="url(#ee45933f59)"><g transform="matrix(1, 0, 0, 1, 1237, 54)"><g clip-path="url(#9c51a8f678)"><g clip-path="url(#a705d9c090)"><g clip-path="url(#038190cece)"><g clip-path="url(#d8a9958078)"><g clip-path="url(#6d89ed2d3f)"><path fill="#ac274f" d="M 70.859375 41.371094 C 69.042969 38.539062 67.328125 36.011719 65.757812 33.394531 C 62.507812 27.980469 59.339844 22.519531 56.132812 17.082031 C 55.445312 15.914062 54.753906 14.746094 54.035156 13.597656 C 52.894531 11.78125 51.152344 11.300781 49.175781 11.628906 C 47.183594 11.960938 45.90625 13.394531 45.570312 15.207031 C 44.628906 20.328125 43.886719 25.488281 43.171875 30.648438 C 42.492188 35.578125 41.949219 40.527344 41.339844 45.46875 C 41.304688 45.753906 41.136719 46.042969 41.175781 46.308594 C 41.648438 49.503906 39.546875 50.472656 37.097656 51.554688 C 29.570312 54.875 22.097656 58.328125 14.695312 61.917969 C 12.140625 63.160156 9.84375 64.945312 7.453125 66.519531 C 5.59375 67.742188 4.878906 69.589844 5.113281 71.699219 C 5.382812 74.101562 7.035156 75.3125 9.292969 75.679688 C 13.660156 76.390625 18.039062 77.015625 22.414062 77.6875 C 30.457031 78.917969 38.5 80.132812 46.527344 81.457031 C 47.128906 81.554688 47.929688 82.375 48.078125 82.996094 C 50.507812 93.117188 52.863281 103.257812 55.195312 113.402344 C 55.980469 116.808594 56.652344 120.242188 57.378906 123.660156 C 57.949219 126.351562 59.226562 127.765625 61.402344 128.109375 C 63.808594 128.488281 65.292969 127.128906 66.136719 125.1875 C 69.113281 118.359375 71.984375 111.488281 74.84375 104.613281 C 76.1875 101.378906 77.457031 98.117188 78.675781 94.835938 C 79.105469 93.667969 79.761719 93.566406 80.828125 93.828125 C 84.566406 94.761719 88.296875 95.738281 92.074219 96.496094 C 98.570312 97.792969 105.097656 98.960938 111.617188 100.140625 C 114.269531 100.617188 116.945312 100.953125 119.597656 101.414062 C 122.320312 101.886719 124.273438 100.558594 125.578125 98.492188 C 126.863281 96.457031 126.277344 94.25 124.722656 92.539062 C 122.46875 90.050781 120.09375 87.664062 117.652344 85.351562 C 111.054688 79.09375 104.351562 72.9375 97.8125 66.621094 C 97.109375 65.941406 96.730469 64.332031 96.976562 63.351562 C 99.679688 52.5625 102.535156 41.816406 105.347656 31.058594 C 106.199219 27.804688 107.179688 24.578125 107.84375 21.289062 C 108.222656 19.40625 107.574219 17.621094 105.882812 16.421875 C 104.175781 15.210938 102.464844 14.707031 100.617188 16.242188 C 91.609375 23.742188 82.574219 31.210938 73.566406 38.710938 C 72.75 39.390625 72.042969 40.199219 70.859375 41.371094 Z M 109.6875 127.394531 C 108.003906 126.453125 107.445312 124.796875 108.679688 123.363281 C 109.523438 122.386719 110.921875 121.539062 112.183594 121.332031 C 116.132812 120.679688 120.148438 120.4375 124.117188 119.886719 C 130.058594 119.058594 135.984375 118.136719 141.90625 117.171875 C 142.546875 117.066406 143.414062 116.546875 143.640625 116 C 145.082031 112.496094 146.425781 108.949219 147.707031 105.382812 C 149.519531 100.328125 151.214844 95.226562 153.046875 90.179688 C 153.703125 88.371094 154.824219 86.90625 156.964844 86.621094 C 160.6875 86.125 163.027344 88.175781 163.425781 92.277344 C 164.105469 99.265625 164.84375 106.25 165.480469 113.246094 C 165.621094 114.816406 166.214844 115.410156 167.792969 115.199219 C 171.339844 114.71875 174.898438 114.347656 178.445312 113.878906 C 180.285156 113.636719 182.109375 113.285156 183.945312 112.992188 C 189.160156 112.164062 194.378906 111.371094 199.589844 110.503906 C 201.554688 110.179688 202.867188 111.125 203.601562 112.683594 C 204.367188 114.308594 204.808594 116.179688 203.164062 117.636719 C 200.8125 119.714844 198.46875 121.824219 195.960938 123.707031 C 189.449219 128.589844 182.949219 133.503906 176.222656 138.082031 C 174.164062 139.484375 173.96875 140.796875 174.386719 142.855469 C 175.386719 147.816406 176.277344 152.796875 177.203125 157.769531 C 177.910156 161.554688 178.695312 165.324219 179.273438 169.128906 C 179.65625 171.644531 180.09375 174.238281 179.863281 176.738281 C 179.558594 180.078125 176.226562 181.160156 173.757812 178.886719 C 171.976562 177.242188 170.335938 175.4375 168.679688 173.660156 C 163.421875 168.023438 158.214844 162.339844 152.910156 156.746094 C 152.382812 156.191406 151.277344 155.800781 150.535156 155.921875 C 148.574219 156.234375 146.648438 156.808594 144.738281 157.386719 C 139.074219 159.105469 133.425781 160.886719 127.761719 162.613281 C 124.617188 163.570312 122.015625 162.464844 121.277344 159.90625 C 120.65625 157.742188 121.878906 156.164062 123.089844 154.65625 C 126.277344 150.6875 129.542969 146.78125 132.75 142.828125 C 133.230469 142.234375 133.566406 141.527344 133.933594 140.933594 C 125.664062 136.316406 117.671875 131.863281 109.6875 127.394531 Z M 182.335938 72.703125 C 181.488281 72.421875 180.714844 71.785156 180.023438 71.183594 C 174.453125 66.328125 168.898438 61.457031 163.375 56.550781 C 162.460938 55.738281 161.765625 55.449219 160.589844 56.210938 C 156.496094 58.859375 152.332031 61.40625 148.160156 63.9375 C 145.773438 65.386719 143.386719 66.871094 140.875 68.078125 C 138.601562 69.171875 136.1875 68.027344 135.671875 65.613281 C 135.445312 64.5625 135.746094 63.148438 136.320312 62.210938 C 139.722656 56.675781 143.210938 51.1875 146.8125 45.777344 C 148.035156 43.941406 148.003906 42.8125 146.167969 41.386719 C 143.578125 39.371094 141.179688 37.082031 138.84375 34.757812 C 137.394531 33.316406 135.816406 31.753906 136.15625 29.394531 C 136.597656 26.320312 139.449219 24.65625 142.820312 25.339844 C 146.253906 26.03125 149.730469 26.535156 153.125 27.375 C 155.074219 27.859375 155.785156 27.148438 156.445312 25.476562 C 158.257812 20.886719 160.136719 16.3125 162.230469 11.84375 C 162.765625 10.695312 164.210938 9.207031 165.207031 9.230469 C 166.507812 9.261719 168.210938 10.359375 168.953125 11.507812 C 169.996094 13.113281 170.566406 15.148438 170.886719 17.078125 C 171.511719 20.886719 171.78125 24.75 172.328125 28.574219 C 172.402344 29.09375 173.214844 29.902344 173.6875 29.902344 C 178.6875 29.902344 183.691406 29.828125 188.6875 29.644531 C 192.007812 29.519531 194.265625 30.460938 194.996094 32.558594 C 195.761719 34.753906 194.730469 36.808594 191.871094 38.765625 C 191.574219 38.96875 191.253906 39.132812 190.941406 39.308594 C 187.628906 41.167969 184.335938 43.0625 180.992188 44.863281 C 179.703125 45.554688 179.492188 46.375 180.046875 47.664062 C 181.203125 50.359375 182.34375 53.066406 183.351562 55.820312 C 184.945312 60.167969 186.425781 64.558594 187.953125 68.929688 C 188.371094 73.1875 185.917969 73.894531 182.335938 72.703125 Z M 182.335938 72.703125 " fill-opacity="1" fill-rule="nonzero"/></g></g></g></g></g></g></g></g></svg>